<svg version="1.1" id="Layer_1" xmlns="http://www.w3.org/2000/svg" xmlns:xlink="http://www.w3.org/1999/xlink" x="0px" y="0px"
	 width="100%" viewBox="0 0 1200 1200" enable-background="new 0 0 1200 1200" xml:space="preserve">
<path fill="#000000" opacity="1.000000" stroke="none" 
	d="
M1056.000000,1201.000000 
	C704.000000,1201.000000 352.500000,1201.000000 1.000000,1201.000000 
	C1.000000,801.000000 1.000000,401.000000 1.000000,1.000000 
	C401.000000,1.000000 801.000000,1.000000 1201.000000,1.000000 
	C1201.000000,401.000000 1201.000000,801.000000 1201.000000,1201.000000 
	C1152.833374,1201.000000 1104.666626,1201.000000 1056.000000,1201.000000 
M235.273911,627.687195 
	C232.658829,627.626099 229.972656,627.150085 227.442383,627.583801 
	C220.581985,628.759705 213.800446,630.387390 206.962677,631.706543 
	C202.607193,632.546814 201.365723,631.103943 202.723923,626.812744 
	C203.321732,624.923950 204.077988,622.996948 205.180389,621.370667 
	C212.054550,611.229919 218.746582,600.913269 228.014465,592.696777 
	C230.649597,590.360596 233.553253,588.270813 236.542664,586.402161 
	C243.244049,582.213196 249.876526,577.834656 256.923798,574.305481 
	C261.876160,571.825317 262.786011,571.133972 260.674500,566.053711 
	C260.038666,564.523865 259.162872,563.089783 258.349976,561.638184 
	C254.762421,555.231506 249.229370,552.820068 243.051788,556.390930 
	C233.448303,561.942017 224.170380,568.128296 215.195877,574.652405 
	C212.439987,576.655884 211.321381,580.794128 209.097931,583.681335 
	C206.988037,586.420959 204.524277,590.724121 202.015625,590.869080 
	C198.664795,591.062622 197.463730,592.715942 196.392242,594.586792 
	C193.028320,600.460327 189.235535,606.300110 187.215363,612.662964 
	C185.662247,617.554749 182.101700,622.759949 185.156693,628.390015 
	C189.123444,635.700378 192.397736,643.354492 201.499954,646.436401 
	C207.686340,648.531006 214.554886,651.183533 219.401276,647.072266 
	C224.621811,642.643616 230.607727,642.188110 236.206070,639.914795 
	C239.879562,638.423157 243.826340,637.608093 247.512741,636.142883 
	C248.946106,635.573120 250.000275,634.049377 251.824631,632.429688 
	C251.675949,632.311218 252.346497,632.845520 252.176819,632.710327 
	C253.749924,632.060852 255.133347,629.183105 257.679108,632.314880 
	C259.487183,634.539185 260.501495,637.409424 261.864685,639.994263 
	C262.613373,641.413818 262.979858,643.452515 264.153534,644.162598 
	C271.789124,648.782166 279.323975,653.588806 289.077789,649.514221 
	C294.070526,647.428528 298.861572,644.979858 304.338684,643.550171 
	C310.688049,641.892761 316.017487,636.320129 321.782074,632.435913 
	C323.325989,631.395752 324.842346,630.314758 326.659424,629.052307 
	C326.923737,625.843567 327.417725,622.204834 327.479889,618.558716 
	C327.582520,612.540588 325.315033,607.175476 320.446136,603.827332 
	C312.897522,598.636475 304.803925,594.242065 297.077637,589.297180 
	C296.538757,588.952271 296.605652,586.172546 297.266388,585.665161 
	C306.888367,578.276184 317.609558,573.914429 330.088135,574.476074 
	C329.721405,577.570007 328.227539,581.618530 334.127808,579.312927 
	C334.526001,579.157349 335.206390,579.679749 335.739685,579.921753 
	C337.982300,580.939880 339.200745,580.374634 339.697937,578.021729 
	C339.877472,577.172058 339.705658,576.167053 340.098328,575.456116 
	C344.176025,568.073303 339.064392,556.220581 330.685455,555.309448 
	C313.013672,553.387939 296.494537,556.901855 282.550598,568.602234 
	C274.036774,575.746155 274.808289,595.724121 284.267731,601.565857 
	C287.909576,603.815002 291.646423,605.690247 294.731323,608.759705 
	C297.750153,611.763550 300.996735,614.538452 304.143372,617.413879 
	C304.045380,618.154846 303.947418,618.895752 303.849426,619.636719 
	C296.827179,622.806458 289.859314,626.104736 282.766510,629.107849 
	C276.374664,631.814026 270.508209,631.534729 266.117645,625.179443 
	C265.612610,624.448425 264.588013,624.076355 264.072601,623.722229 
	C261.635651,625.326233 259.656616,627.586426 257.372620,627.954590 
	C250.219894,629.107544 242.952164,629.546936 235.317581,630.303589 
	C235.412094,629.355347 235.542526,628.046631 236.690002,626.818848 
	C242.164368,626.654236 248.085953,628.568604 252.709061,624.446533 
	C252.578827,623.859863 252.448578,623.273132 252.318329,622.686462 
	C246.813950,624.074768 241.309570,625.463074 235.273911,627.687195 
M468.273834,627.687195 
	C465.660004,627.625671 462.975037,627.148987 460.446075,627.582520 
	C453.589020,628.757812 446.810699,630.384155 439.976593,631.704407 
	C435.618317,632.546326 434.370270,631.109192 435.718903,626.830444 
	C436.314117,624.942017 437.072571,623.018311 438.170319,621.389221 
	C445.014496,611.232727 451.750244,600.961060 460.988861,592.726868 
	C462.994720,590.939087 465.778748,589.976746 467.635590,588.077942 
	C474.553436,581.003906 482.704193,576.194885 492.187866,573.469604 
	C493.179230,573.184692 494.736206,571.473389 494.553375,571.020569 
	C492.663574,566.340454 491.284882,561.080750 488.115601,557.402710 
	C485.329926,554.169922 480.175537,553.716919 476.075226,556.283752 
	C466.665497,562.174255 457.239502,568.082397 448.259552,574.589844 
	C445.492889,576.594727 444.282745,580.660950 442.112122,583.600342 
	C440.128479,586.286621 437.771271,590.862549 435.646973,590.824219 
	C431.355377,590.746765 429.784424,593.200012 428.627930,595.735962 
	C424.772064,604.191284 416.059875,602.293213 409.588318,604.784485 
	C406.048523,606.147217 401.366455,604.542725 397.988708,604.326782 
	C396.754822,603.425903 395.818329,602.156799 394.841919,602.125244 
	C388.980682,601.936218 383.110291,602.031433 375.791534,602.031433 
	C383.772888,590.100525 386.708221,576.867371 397.686005,569.357849 
	C402.896057,572.946411 399.654633,582.090515 408.084076,582.272461 
	C414.053467,572.904114 411.442749,560.631470 401.924377,551.712219 
	C390.035095,540.571167 378.314331,544.112244 371.520203,556.678040 
	C364.061249,570.473389 359.140747,585.692871 353.738007,600.519165 
	C351.951263,605.422424 349.905670,608.720337 344.653381,610.104126 
	C338.312317,611.774780 335.940704,619.699646 340.249542,624.516479 
	C342.765564,627.329102 342.825623,630.125793 341.556732,633.256104 
	C339.619476,638.035217 336.707886,642.628967 335.878174,647.580933 
	C335.213074,651.550293 335.939087,656.635315 338.059906,659.930115 
	C340.017700,662.971558 345.057739,664.058289 348.483124,661.050842 
	C350.539856,659.245117 351.391632,656.017883 352.639740,653.361267 
	C353.242249,652.078796 353.356262,650.567383 353.954681,649.282288 
	C356.824463,643.119324 360.317383,637.184021 362.540009,630.802490 
	C364.258759,625.867737 367.496490,621.254456 372.612427,620.815002 
	C385.887207,619.674744 398.971405,617.806580 411.483490,612.936951 
	C414.137848,611.903870 416.934509,611.236633 420.453461,610.159790 
	C419.781921,613.409790 419.123657,615.623840 418.903931,617.880615 
	C418.550354,621.512695 417.220825,625.738770 418.549286,628.709717 
	C421.853607,636.099243 425.490021,643.415283 434.444824,646.417786 
	C440.637085,648.494019 447.439545,651.139771 452.352234,647.107422 
	C457.718445,642.702820 464.113342,642.593384 469.500305,639.592896 
	C474.156982,636.999268 481.742767,639.842712 483.616333,632.136963 
	C484.337860,632.342957 485.059357,632.548950 485.780884,632.754944 
	C485.638702,633.006042 485.496521,633.257141 485.354309,633.508240 
	C485.748810,633.002075 486.039276,632.302246 486.556427,632.024353 
	C488.501160,630.979492 490.519714,630.072021 492.510620,629.113098 
	C492.464172,628.641052 492.417755,628.169006 492.371307,627.696960 
	C484.488800,628.578308 476.606323,629.459595 468.309692,630.387268 
	C468.415070,629.328491 468.544006,628.033203 469.689941,626.818848 
	C475.164368,626.654297 481.085938,628.568420 485.709137,624.446594 
	C485.578888,623.859863 485.448639,623.273193 485.318390,622.686462 
	C479.813995,624.074768 474.309570,625.463013 468.273834,627.687195 
z"/>
<path fill="#F9F9F9" opacity="1.000000" stroke="none" 
	d="
M468.672913,626.737915 
	C468.544006,628.033203 468.415070,629.328491 468.309692,630.387268 
	C476.606323,629.459595 484.488800,628.578308 492.371307,627.696960 
	C492.417755,628.169006 492.464172,628.641052 492.510620,629.113098 
	C490.519714,630.072021 488.501160,630.979492 486.556427,632.024353 
	C486.039276,632.302246 485.748810,633.002075 485.354340,633.508240 
	C485.496521,633.257141 485.638702,633.006042 485.780884,632.754944 
	C485.059357,632.548950 484.337860,632.342957 483.616333,632.136963 
	C481.742767,639.842712 474.156982,636.999268 469.500305,639.592896 
	C464.113342,642.593384 457.718445,642.702820 452.352234,647.107422 
	C447.439545,651.139771 440.637085,648.494019 434.444824,646.417786 
	C425.490021,643.415283 421.853607,636.099243 418.549286,628.709717 
	C417.220825,625.738770 418.550354,621.512695 418.903931,617.880615 
	C419.123657,615.623840 419.781921,613.409790 420.453461,610.159790 
	C416.934509,611.236633 414.137848,611.903870 411.483490,612.936951 
	C398.971405,617.806580 385.887207,619.674744 372.612427,620.815002 
	C367.496490,621.254456 364.258759,625.867737 362.540009,630.802490 
	C360.317383,637.184021 356.824463,643.119324 353.954681,649.282288 
	C353.356262,650.567383 353.242249,652.078796 352.639740,653.361267 
	C351.391632,656.017883 350.539856,659.245117 348.483124,661.050842 
	C345.057739,664.058289 340.017700,662.971558 338.059906,659.930115 
	C335.939087,656.635315 335.213074,651.550293 335.878174,647.580933 
	C336.707886,642.628967 339.619476,638.035217 341.556732,633.256104 
	C342.825623,630.125793 342.765564,627.329102 340.249542,624.516479 
	C335.940704,619.699646 338.312317,611.774780 344.653381,610.104126 
	C349.905670,608.720337 351.951263,605.422424 353.738007,600.519165 
	C359.140747,585.692871 364.061249,570.473389 371.520203,556.678040 
	C378.314331,544.112244 390.035095,540.571167 401.924377,551.712219 
	C411.442749,560.631470 414.053467,572.904114 408.084076,582.272461 
	C399.654633,582.090515 402.896057,572.946411 397.686005,569.357849 
	C386.708221,576.867371 383.772888,590.100525 375.791534,602.031433 
	C383.110291,602.031433 388.980682,601.936218 394.841919,602.125244 
	C395.818329,602.156799 396.754822,603.425903 397.988708,604.326782 
	C401.366455,604.542725 406.048523,606.147217 409.588318,604.784485 
	C416.059875,602.293213 424.772064,604.191284 428.627930,595.735962 
	C429.784424,593.200012 431.355377,590.746765 435.646973,590.824219 
	C437.771271,590.862549 440.128479,586.286621 442.112122,583.600342 
	C444.282745,580.660950 445.492889,576.594727 448.259552,574.589844 
	C457.239502,568.082397 466.665497,562.174255 476.075226,556.283752 
	C480.175537,553.716919 485.329926,554.169922 488.115601,557.402710 
	C491.284882,561.080750 492.663574,566.340454 494.553375,571.020569 
	C494.736206,571.473389 493.179230,573.184692 492.187866,573.469604 
	C482.704193,576.194885 474.553436,581.003906 467.635590,588.077942 
	C465.778748,589.976746 462.994720,590.939087 460.988861,592.726868 
	C451.750244,600.961060 445.014496,611.232727 438.170319,621.389221 
	C437.072571,623.018311 436.314117,624.942017 435.718903,626.830444 
	C434.370270,631.109192 435.618317,632.546326 439.976593,631.704407 
	C446.810699,630.384155 453.589020,628.757812 460.446075,627.582520 
	C462.975037,627.148987 465.660004,627.625671 468.509918,627.236816 
	C468.746002,626.786499 468.672913,626.737915 468.672913,626.737915 
M455.278015,632.088867 
	C453.754181,632.813965 452.230347,633.539001 450.706512,634.264099 
	C450.935760,634.834961 451.165039,635.405823 451.394318,635.976685 
	C453.994049,635.110046 456.593811,634.243408 459.193573,633.376831 
	C459.066254,632.888794 458.938965,632.400757 458.811646,631.912720 
	C457.948242,631.912720 457.084839,631.912720 455.278015,632.088867 
M468.247620,630.042603 
	C465.408661,630.323792 462.569702,630.605042 459.730743,630.886230 
	C459.829102,631.489258 459.927460,632.092224 460.025818,632.695251 
	C462.626160,632.110962 465.226471,631.526672 468.247620,630.042603 
z"/>
<path fill="#F9F9F9" opacity="1.000000" stroke="none" 
	d="
M235.672974,626.737915 
	C235.542526,628.046631 235.412094,629.355347 235.317581,630.303589 
	C242.952164,629.546936 250.219894,629.107544 257.372620,627.954590 
	C259.656616,627.586426 261.635651,625.326233 264.072601,623.722229 
	C264.588013,624.076355 265.612610,624.448425 266.117645,625.179443 
	C270.508209,631.534729 276.374664,631.814026 282.766510,629.107849 
	C289.859314,626.104736 296.827179,622.806458 303.849426,619.636719 
	C303.947418,618.895752 304.045380,618.154846 304.143372,617.413879 
	C300.996735,614.538452 297.750153,611.763550 294.731323,608.759705 
	C291.646423,605.690247 287.909576,603.815002 284.267731,601.565857 
	C274.808289,595.724121 274.036774,575.746155 282.550598,568.602234 
	C296.494537,556.901855 313.013672,553.387939 330.685455,555.309448 
	C339.064392,556.220581 344.176025,568.073303 340.098328,575.456116 
	C339.705658,576.167053 339.877472,577.172058 339.697937,578.021729 
	C339.200745,580.374634 337.982300,580.939880 335.739685,579.921753 
	C335.206390,579.679749 334.526001,579.157349 334.127808,579.312927 
	C328.227539,581.618530 329.721405,577.570007 330.088135,574.476074 
	C317.609558,573.914429 306.888367,578.276184 297.266388,585.665161 
	C296.605652,586.172546 296.538757,588.952271 297.077637,589.297180 
	C304.803925,594.242065 312.897522,598.636475 320.446136,603.827332 
	C325.315033,607.175476 327.582520,612.540588 327.479889,618.558716 
	C327.417725,622.204834 326.923737,625.843567 326.659424,629.052307 
	C324.842346,630.314758 323.325989,631.395752 321.782074,632.435913 
	C316.017487,636.320129 310.688049,641.892761 304.338684,643.550171 
	C298.861572,644.979858 294.070526,647.428528 289.077789,649.514221 
	C279.323975,653.588806 271.789124,648.782166 264.153534,644.162598 
	C262.979858,643.452515 262.613373,641.413818 261.864685,639.994263 
	C260.501495,637.409424 259.487183,634.539185 257.679108,632.314880 
	C255.133347,629.183105 253.749924,632.060852 252.176819,632.710327 
	C252.346497,632.845520 251.675949,632.311218 251.824631,632.429688 
	C250.000275,634.049377 248.946106,635.573120 247.512741,636.142883 
	C243.826340,637.608093 239.879562,638.423157 236.206070,639.914795 
	C230.607727,642.188110 224.621811,642.643616 219.401276,647.072266 
	C214.554886,651.183533 207.686340,648.531006 201.499954,646.436401 
	C192.397736,643.354492 189.123444,635.700378 185.156693,628.390015 
	C182.101700,622.759949 185.662247,617.554749 187.215363,612.662964 
	C189.235535,606.300110 193.028320,600.460327 196.392242,594.586792 
	C197.463730,592.715942 198.664795,591.062622 202.015625,590.869080 
	C204.524277,590.724121 206.988037,586.420959 209.097931,583.681335 
	C211.321381,580.794128 212.439987,576.655884 215.195877,574.652405 
	C224.170380,568.128296 233.448303,561.942017 243.051788,556.390930 
	C249.229370,552.820068 254.762421,555.231506 258.349976,561.638184 
	C259.162872,563.089783 260.038666,564.523865 260.674500,566.053711 
	C262.786011,571.133972 261.876160,571.825317 256.923798,574.305481 
	C249.876526,577.834656 243.244049,582.213196 236.542664,586.402161 
	C233.553253,588.270813 230.649597,590.360596 228.014465,592.696777 
	C218.746582,600.913269 212.054550,611.229919 205.180389,621.370667 
	C204.077988,622.996948 203.321732,624.923950 202.723923,626.812744 
	C201.365723,631.103943 202.607193,632.546814 206.962677,631.706543 
	C213.800446,630.387390 220.581985,628.759705 227.442383,627.583801 
	C229.972656,627.150085 232.658829,627.626099 235.510010,627.236816 
	C235.746094,626.786499 235.672974,626.737915 235.672974,626.737915 
M218.927841,633.560364 
	C218.823303,634.158142 218.718765,634.755981 218.614243,635.353760 
	C221.646378,635.756897 224.340179,635.424133 226.559204,631.006531 
	C223.543396,631.933594 221.626938,632.522644 218.927841,633.560364 
M233.653442,629.437988 
	C231.326126,630.059692 228.998795,630.681458 226.671478,631.303162 
	C228.312454,632.295959 229.682800,632.185303 231.031342,631.949768 
	C231.999771,631.780640 233.041489,631.612671 233.851898,631.118530 
	C234.315109,630.835999 234.380692,629.901367 233.653442,629.437988 
z"/>
<path fill="#F9F9F9" opacity="1.000000" stroke="none" 
	d="
M235.775635,626.818970 
	C241.309570,625.463074 246.813950,624.074768 252.318329,622.686462 
	C252.448578,623.273132 252.578827,623.859863 252.709061,624.446533 
	C248.085953,628.568604 242.164368,626.654236 236.181488,626.778381 
	C235.672974,626.737915 235.746094,626.786499 235.775635,626.818970 
z"/>
<path fill="#F9F9F9" opacity="1.000000" stroke="none" 
	d="
M468.775574,626.818909 
	C474.309570,625.463013 479.813995,624.074768 485.318390,622.686462 
	C485.448639,623.273193 485.578888,623.859863 485.709137,624.446594 
	C481.085938,628.568420 475.164368,626.654297 469.181427,626.778381 
	C468.672913,626.737915 468.746002,626.786499 468.775574,626.818909 
z"/>
<path fill="#000000" opacity="1.000000" stroke="none" 
	d="
M455.749725,632.000793 
	C457.084839,631.912720 457.948242,631.912720 458.811646,631.912720 
	C458.938965,632.400757 459.066254,632.888794 459.193573,633.376831 
	C456.593811,634.243408 453.994049,635.110046 451.394318,635.976685 
	C451.165039,635.405823 450.935760,634.834961 450.706512,634.264099 
	C452.230347,633.539001 453.754181,632.813965 455.749725,632.000793 
z"/>
<path fill="#000000" opacity="1.000000" stroke="none" 
	d="
M468.037231,630.492493 
	C465.226471,631.526672 462.626160,632.110962 460.025818,632.695251 
	C459.927460,632.092224 459.829102,631.489258 459.730743,630.886230 
	C462.569702,630.605042 465.408661,630.323792 468.037231,630.492493 
z"/>
<path fill="#000000" opacity="1.000000" stroke="none" 
	d="
M219.319168,633.336060 
	C221.626938,632.522644 223.543396,631.933594 226.559204,631.006531 
	C224.340179,635.424133 221.646378,635.756897 218.614243,635.353760 
	C218.718765,634.755981 218.823303,634.158142 219.319168,633.336060 
z"/>
<path fill="#000000" opacity="1.000000" stroke="none" 
	d="
M234.139374,629.349182 
	C234.380692,629.901367 234.315109,630.835999 233.851898,631.118530 
	C233.041489,631.612671 231.999771,631.780640 231.031342,631.949768 
	C229.682800,632.185303 228.312454,632.295959 226.671478,631.303162 
	C228.998795,630.681458 231.326126,630.059692 234.139374,629.349182 
z"/>
</svg>