<svg version="1.1" id="Layer_1" xmlns="http://www.w3.org/2000/svg" xmlns:xlink="http://www.w3.org/1999/xlink" x="0px" y="0px"
	 width="100%" viewBox="0 0 200 200" enable-background="new 0 0 200 200" xml:space="preserve">
<path fill="#F3F7F9" opacity="1.000000" stroke="none" 
	d="
M183.002808,201.000000 
	C123.335663,201.000000 64.168991,200.962463 5.002699,201.096588 
	C1.583240,201.104340 0.895891,200.432098 0.902972,197.002289 
	C1.035094,133.002640 1.034728,69.002579 0.903696,5.002928 
	C0.896697,1.584184 1.567139,0.895855 4.997459,0.902940 
	C68.997101,1.035112 132.997177,1.034709 196.996826,0.903733 
	C200.415024,0.896738 201.104187,1.566386 201.097092,4.997210 
	C200.964874,68.996849 200.965317,132.996918 201.096222,196.996567 
	C201.103226,200.414215 200.464676,201.388565 196.995331,201.092728 
	C192.527863,200.711761 188.003311,201.000000 183.002808,201.000000 
z"/>
<path fill="#33DAF8" opacity="1.000000" stroke="none" 
	d="
M38.335835,98.012375 
	C41.213669,95.360924 43.811211,94.869270 46.853378,97.379333 
	C48.223110,98.509483 48.122070,99.568657 47.846195,100.795631 
	C47.518169,102.254539 46.800331,103.325874 45.118320,101.966743 
	C44.871754,101.767502 44.420013,101.027138 44.104408,101.995903 
	C43.614708,103.499062 44.047672,105.775185 40.933357,104.229294 
	C38.134781,102.840134 37.076172,101.269638 38.335835,98.012375 
z"/>
<path fill="#58768F" opacity="1.000000" stroke="none" 
	d="
M118.324013,98.749733 
	C120.744308,99.656509 123.354874,100.560989 121.427429,103.277245 
	C119.296303,106.280540 116.456207,105.672791 113.713150,103.674446 
	C114.506599,102.275894 115.305527,102.950325 116.005653,103.133904 
	C117.466782,103.517021 119.282784,104.079849 119.736557,102.182571 
	C120.153557,100.439102 118.175575,100.463928 116.988274,100.040314 
	C115.210831,99.406120 113.378395,98.681236 113.923065,96.276138 
	C114.566772,93.433716 116.847275,93.860992 118.793846,93.789825 
	C117.195992,93.837692 116.211456,94.715218 115.870659,96.323875 
	C115.524361,97.958527 117.026573,98.072014 118.324013,98.749733 
z"/>
<path fill="#58768F" opacity="1.000000" stroke="none" 
	d="
M129.576019,104.479477 
	C127.965332,104.845413 126.646095,105.082069 125.366524,104.945930 
	C124.344032,104.837128 123.624916,103.951355 123.453888,102.924744 
	C123.274529,101.848206 123.849884,101.015236 124.881584,100.655350 
	C126.475479,100.099373 128.276459,100.008659 129.108505,97.696503 
	C130.478119,100.334297 129.999847,102.276443 129.576019,104.479477 
z"/>
<path fill="#58768F" opacity="1.000000" stroke="none" 
	d="
M78.135101,104.094040 
	C77.435944,103.685188 77.038475,103.187485 76.576492,102.759392 
	C75.376884,101.647758 77.491135,98.394424 74.485374,98.803581 
	C71.973305,99.145546 73.498878,101.802460 73.011993,103.364517 
	C72.873428,103.809082 72.732231,104.252838 72.481979,105.046738 
	C70.306877,103.035812 71.245255,100.683243 71.270050,98.617332 
	C71.289352,97.008865 72.312935,96.796761 73.605141,97.693146 
	C74.650604,98.418373 75.688812,99.471725 77.442856,98.010941 
	C78.030998,97.875900 78.216164,97.916870 78.593750,98.167328 
	C78.037224,99.839066 77.784470,101.336380 78.621376,103.260033 
	C78.653313,103.759171 78.530357,103.898041 78.135101,104.094040 
z"/>
<path fill="#94A8B8" opacity="1.000000" stroke="none" 
	d="
M66.792145,99.317612 
	C66.934586,99.028229 67.182907,98.822533 67.340424,98.856918 
	C69.334518,100.105263 68.945137,101.775436 68.045792,103.809708 
	C66.104340,103.652100 63.695049,106.630028 62.944046,103.162369 
	C62.323505,100.297119 64.922188,100.293930 66.792145,99.317612 
z"/>
<path fill="#58768F" opacity="1.000000" stroke="none" 
	d="
M85.248138,103.334038 
	C85.321663,100.030296 84.693420,97.078079 86.741470,94.221611 
	C86.741470,97.603073 86.863914,100.992981 86.632034,104.358467 
	C86.588737,104.986832 85.683769,104.216980 85.248138,103.334038 
z"/>
<path fill="#173F62" opacity="1.000000" stroke="none" 
	d="
M92.814980,98.748917 
	C93.878914,96.198135 94.624702,97.646896 94.610054,98.721581 
	C94.582504,100.742592 94.077324,102.757095 93.713112,105.153442 
	C92.191254,102.996040 93.031754,100.987244 92.814980,98.748917 
z"/>
<path fill="#58768F" opacity="1.000000" stroke="none" 
	d="
M106.268082,98.170807 
	C104.860336,98.129082 103.937050,98.317413 103.259064,99.516258 
	C103.474922,100.299797 103.575584,100.832664 103.322952,101.776093 
	C103.710945,102.907173 104.274109,103.661346 105.609383,105.449501 
	C102.065514,104.324516 100.904022,102.834381 101.143303,100.284485 
	C101.415909,97.379440 103.125565,96.406059 106.232178,97.210663 
	C106.612465,97.666077 106.638206,97.929123 106.268082,98.170807 
z"/>
<path fill="#58768F" opacity="1.000000" stroke="none" 
	d="
M81.902847,104.618164 
	C81.191498,104.668343 80.776222,104.522163 80.360939,104.375992 
	C82.376373,102.076546 82.812714,99.722931 80.694527,97.145470 
	C84.005722,99.019058 85.237213,101.243866 81.902847,104.618164 
z"/>
<path fill="#58768F" opacity="1.000000" stroke="none" 
	d="
M53.101864,95.882339 
	C53.841805,95.151840 55.041992,94.346252 54.992035,95.454697 
	C54.905544,97.373993 53.947689,99.254021 53.196465,101.659126 
	C51.433887,99.383324 52.536114,97.769531 53.101864,95.882339 
z"/>
<path fill="#58768F" opacity="1.000000" stroke="none" 
	d="
M90.469772,104.265411 
	C87.612633,102.432739 89.452484,99.788208 89.099930,96.541939 
	C91.806427,99.174095 90.524399,101.685860 90.469772,104.265411 
z"/>
<path fill="#58768F" opacity="1.000000" stroke="none" 
	d="
M56.265877,105.006821 
	C55.406456,104.523003 54.749767,104.203003 54.490837,103.684402 
	C54.131149,102.963997 55.042324,102.965775 55.267311,103.069328 
	C57.175579,103.947624 59.051655,103.041306 61.063557,102.846870 
	C60.200161,105.201492 58.487839,105.278862 56.265877,105.006821 
z"/>
<path fill="#173F62" opacity="1.000000" stroke="none" 
	d="
M137.222519,103.313034 
	C137.177750,101.936493 137.230103,100.857567 137.202423,99.378105 
	C137.045456,98.368355 137.185883,97.815765 137.708588,97.072418 
	C137.863541,96.040382 137.863541,95.258331 137.863541,94.476280 
	C138.247070,94.455650 138.630615,94.435020 139.014145,94.414391 
	C139.014145,97.296295 139.014145,100.178200 138.964645,103.503990 
	C138.260574,104.416153 137.776947,104.075668 137.222519,103.313034 
z"/>
<path fill="#173F62" opacity="1.000000" stroke="none" 
	d="
M145.630432,100.200287 
	C145.662140,99.460510 145.386169,99.039200 145.372559,98.609581 
	C145.349121,97.869476 146.134552,97.874710 146.363785,98.129616 
	C147.965073,99.910225 147.069275,102.045280 147.051712,104.050079 
	C147.045334,104.778801 146.381836,104.698685 146.029129,104.480141 
	C144.861740,103.756767 145.771729,102.810425 145.813538,101.561989 
	C145.659286,100.953506 145.550064,100.734253 145.630432,100.200287 
z"/>
<path fill="#173F62" opacity="1.000000" stroke="none" 
	d="
M67.872108,104.378311 
	C67.745811,102.660034 67.836388,101.170738 67.712448,99.286377 
	C67.658188,98.190414 68.382881,97.615524 68.591507,98.390312 
	C69.145378,100.447311 70.333611,102.720825 67.872108,104.378311 
z"/>
<path fill="#94A8B8" opacity="1.000000" stroke="none" 
	d="
M103.507492,102.048340 
	C103.156570,101.630821 103.165359,101.108635 103.185135,100.193520 
	C104.801384,99.945732 106.406647,100.090866 108.150589,100.248543 
	C107.226921,102.721298 105.239128,101.456093 103.507492,102.048340 
z"/>
<path fill="#58768F" opacity="1.000000" stroke="none" 
	d="
M99.775482,101.202675 
	C99.741127,102.663727 100.170845,103.898628 98.884682,104.606827 
	C97.732521,101.304985 97.732521,101.304985 99.775482,101.202675 
z"/>
<path fill="#58768F" opacity="1.000000" stroke="none" 
	d="
M137.460144,96.905586 
	C137.768509,97.401184 137.673477,97.979935 137.350403,98.768127 
	C136.076706,98.499176 135.032715,97.910378 133.684937,98.992256 
	C133.185287,99.233025 132.965256,99.411720 132.418610,99.318222 
	C132.498535,95.347580 135.315430,97.465965 137.460144,96.905586 
z"/>
<path fill="#173F62" opacity="1.000000" stroke="none" 
	d="
M131.996704,99.315186 
	C132.310822,99.052315 132.529663,99.058617 133.076889,99.059616 
	C133.307480,100.077881 133.209656,101.101440 133.108704,102.515137 
	C133.112778,103.107056 133.119965,103.308838 132.834991,103.430725 
	C131.379623,102.257027 131.858719,100.883530 131.996704,99.315186 
z"/>
<path fill="#33DAF8" opacity="1.000000" stroke="none" 
	d="
M36.042847,98.065781 
	C37.663574,99.354950 37.410740,100.660446 36.354221,101.859329 
	C36.219311,102.012413 35.331059,101.834061 35.168938,101.574074 
	C34.402431,100.344902 34.666225,99.154366 36.042847,98.065781 
z"/>
<path fill="#173F62" opacity="1.000000" stroke="none" 
	d="
M65.026764,98.512840 
	C64.104469,98.317772 63.852253,97.671799 64.255974,97.462494 
	C65.407440,96.865524 66.690506,96.470467 67.443718,98.233551 
	C66.605957,98.459709 65.973366,98.484085 65.026764,98.512840 
z"/>
<path fill="#94A8B8" opacity="1.000000" stroke="none" 
	d="
M145.475677,99.904106 
	C145.825348,100.100655 145.830643,100.315742 145.802216,100.851791 
	C144.907089,101.493385 143.708298,102.488045 143.248535,101.216492 
	C142.684662,99.656883 144.340927,100.167389 145.475677,99.904106 
z"/>
<path fill="#58768F" opacity="1.000000" stroke="none" 
	d="
M136.862000,103.161041 
	C137.552490,103.297714 137.979614,103.580002 138.660934,103.905090 
	C138.815475,105.405869 137.837646,104.635376 137.200912,104.584991 
	C136.350281,104.517662 136.181686,104.024742 136.862000,103.161041 
z"/>
<path fill="#58768F" opacity="1.000000" stroke="none" 
	d="
M124.736572,97.814926 
	C124.942535,98.135094 125.011131,98.351044 125.079727,98.566986 
	C124.927155,98.547920 124.651665,98.552910 124.642441,98.505775 
	C124.591934,98.247810 124.606812,97.977051 124.736572,97.814926 
z"/>
<path fill="#58768F" opacity="1.000000" stroke="none" 
	d="
M106.401649,97.583481 
	C106.959648,97.790207 107.837173,97.905060 107.432205,98.689644 
	C107.352119,98.844826 106.610992,98.658813 106.023468,98.389801 
	C105.987000,98.020943 106.101791,97.892433 106.401649,97.583481 
z"/>
<path fill="#94A8B8" opacity="1.000000" stroke="none" 
	d="
M65.100311,98.549088 
	C65.283607,97.841675 65.996292,97.870583 66.986923,98.294029 
	C67.238266,98.566727 67.186508,98.863022 67.060547,98.945625 
	C66.934586,99.028229 66.983803,99.007317 67.005859,98.992393 
	C66.514534,98.863403 66.001160,98.749336 65.100311,98.549088 
z"/>
<path fill="#58768F" opacity="1.000000" stroke="none" 
	d="
M98.650970,98.001114 
	C98.580330,98.157761 98.504951,98.182037 98.429565,98.206314 
	C98.429001,98.068245 98.428429,97.930183 98.427864,97.792114 
	C98.500648,97.817665 98.573433,97.843208 98.650970,98.001114 
z"/>
<path fill="#173F62" opacity="1.000000" stroke="none" 
	d="
M132.966034,103.018097 
	C133.969223,103.221924 134.518478,103.675568 133.756042,104.587166 
	C133.731995,104.615913 133.128708,104.160194 132.669159,103.640579 
	C132.542847,103.350830 132.826508,103.130936 132.966034,103.018097 
z"/>
<path fill="#58768F" opacity="1.000000" stroke="none" 
	d="
M78.062584,98.002235 
	C78.301125,97.143852 78.700737,96.916496 78.866547,98.171974 
	C78.617226,98.307724 78.448280,98.238632 78.062584,98.002235 
z"/>
<path fill="#58768F" opacity="1.000000" stroke="none" 
	d="
M78.529495,103.721329 
	C78.909790,104.189430 79.246452,104.905807 77.982864,104.350258 
	C78.002777,104.041565 78.142746,103.931961 78.529495,103.721329 
z"/>
<path fill="#F3F7F9" opacity="1.000000" stroke="none" 
	d="
M126.380569,101.511337 
	C127.720139,101.521896 128.174530,102.034782 127.508591,102.986420 
	C127.088005,103.587440 126.440163,103.739281 125.820244,103.220879 
	C125.074425,102.597198 125.526253,102.114853 126.380569,101.511337 
z"/>
</svg>